<svg width="25" height="25" viewBox="0 0 25 25" fill="none" xmlns="http://www.w3.org/2000/svg">
<g clip-path="url(#clip0_15_361)">
<path d="M11.5573 14.4219C11.8669 14.2741 12.2111 14.2143 12.5524 14.2491C12.8937 14.2838 13.2188 14.4118 13.4922 14.619C13.7656 14.8262 13.9767 15.1046 14.1025 15.4238C14.2282 15.7429 14.2638 16.0905 14.2052 16.4285C14.1466 16.7665 13.9962 17.0819 13.7704 17.3401C13.5445 17.5983 13.252 17.7895 12.9249 17.8926C12.5977 17.9957 12.2484 18.0068 11.9154 17.9247C11.5823 17.8426 11.2782 17.6704 11.0365 17.4271L4 24.4687L4.04167 24.5052L6.90104 10.2031L14.6042 8.64062L17.2448 6L22.526 11.3021L19.8854 13.9427L18.3229 21.6458L4.03646 24.5052" stroke="black" stroke-width="2" stroke-linecap="round" stroke-linejoin="round"/>
</g>
<defs>
<clipPath id="clip0_15_361">
<rect width="25" height="25" fill="white"/>
</clipPath>
</defs>
</svg>
