<svg width="25" height="25" viewBox="0 0 25 25" fill="none" xmlns="http://www.w3.org/2000/svg">
<path d="M13.3646 18.5C12.7427 18.6656 12.1019 18.7497 11.4583 18.75C9.77137 18.7498 8.13664 18.1648 6.83268 17.0945C5.52871 16.0242 4.6362 14.5349 4.3072 12.8803C3.9782 11.2258 4.23308 9.50833 5.0284 8.02061C5.82372 6.5329 7.11028 5.36698 8.66887 4.7215C10.2275 4.07603 11.9616 3.99094 13.5759 4.48073C15.1902 4.97052 16.5847 6.0049 17.5219 7.4076C18.459 8.81031 18.8808 10.4946 18.7154 12.1734C18.5499 13.8522 17.8075 15.4217 16.6146 16.6145" stroke="black" stroke-width="2" stroke-linecap="round" stroke-linejoin="round"/>
<path d="M20.8333 20.8333L16.6146 16.6145" stroke="black" stroke-width="2" stroke-linecap="round" stroke-linejoin="round"/>
</svg>
