<svg width="20" height="20" viewBox="0 0 20 20" fill="none" xmlns="http://www.w3.org/2000/svg">
<g clip-path="url(#clip0_33_17)">
<path d="M6.66683 10.8334C7.12707 10.8334 7.50016 10.4603 7.50016 10.0001C7.50016 9.53984 7.12707 9.16675 6.66683 9.16675C6.20659 9.16675 5.8335 9.53984 5.8335 10.0001C5.8335 10.4603 6.20659 10.8334 6.66683 10.8334Z" fill="black"/>
<path d="M10.0001 10.8334C10.4603 10.8334 10.8334 10.4603 10.8334 10.0001C10.8334 9.53984 10.4603 9.16675 10.0001 9.16675C9.53984 9.16675 9.16675 9.53984 9.16675 10.0001C9.16675 10.4603 9.53984 10.8334 10.0001 10.8334Z" fill="black"/>
<path d="M13.3333 10.8334C13.7936 10.8334 14.1667 10.4603 14.1667 10.0001C14.1667 9.53984 13.7936 9.16675 13.3333 9.16675C12.8731 9.16675 12.5 9.53984 12.5 10.0001C12.5 10.4603 12.8731 10.8334 13.3333 10.8334Z" fill="black"/>
<path d="M10.0334 2.60425C11.8586 2.60585 13.6205 3.27295 14.9891 4.48054C16.3577 5.68813 17.2389 7.35333 17.4677 9.1641C17.6965 10.9749 17.2571 12.8069 16.2319 14.317C15.2067 15.827 13.6661 16.9114 11.8987 17.3669C10.1313 17.8224 8.2584 17.6178 6.63104 16.7914C5.00367 15.965 3.7335 14.5736 3.05854 12.8778C2.38358 11.182 2.35016 9.29831 2.96453 7.57966C3.5789 5.861 4.79891 4.42535 6.39593 3.54175" stroke="black" stroke-width="2" stroke-linecap="round" stroke-linejoin="round"/>
</g>
<defs>
<clipPath id="clip0_33_17">
<rect width="20" height="20" fill="white"/>
</clipPath>
</defs>
</svg>
